<?xml version="1.0" standalone="no"?><!DOCTYPE svg PUBLIC "-//W3C//DTD SVG 1.1//EN" "http://www.w3.org/Graphics/SVG/1.1/DTD/svg11.dtd"><svg t="1594006243807" class="icon" viewBox="0 0 1024 1024" version="1.1" xmlns="http://www.w3.org/2000/svg" p-id="2123" xmlns:xlink="http://www.w3.org/1999/xlink" width="200" height="200"><defs><style type="text/css"></style></defs><path d="M375.466667 870.4m-102.4 0a102.4 102.4 0 1 0 204.8 0 102.4 102.4 0 1 0-204.8 0Z" fill="#ffffff" p-id="2124"></path><path d="M819.2 870.4m-102.4 0a102.4 102.4 0 1 0 204.8 0 102.4 102.4 0 1 0-204.8 0Z" fill="#ffffff" p-id="2125"></path><path d="M1020.586667 194.56c-3.413333-3.413333-6.826667-6.826667-13.653334-6.826667h-819.2l-27.306666-122.88c0-6.826667-10.24-13.653333-17.066667-13.653333H17.066667c-10.24 0-17.066667 6.826667-17.066667 17.066667s6.826667 17.066667 17.066667 17.066666h112.64L235.52 614.4c13.653333 68.266667 71.68 119.466667 143.36 119.466667h491.52c10.24 0 17.066667-6.826667 17.066667-17.066667s-6.826667-17.066667-17.066667-17.066667H378.88c-44.373333 0-85.333333-27.306667-102.4-68.266666L921.6 549.546667c6.826667 0 13.653333-6.826667 13.653333-13.653334L1024 208.213333c0-3.413333 0-10.24-3.413333-13.653333z m-805.546667 136.533333l54.613333 266.24h-3.413333L215.04 331.093333z" fill="#ffffff" p-id="2126"></path></svg>