<svg version="1.1" width="128" height="128" viewBox="0 0 128 128" xmlns="http://www.w3.org/2000/svg" xmlns:xlink="http://www.w3.org/1999/xlink" id="图层_1" overflow="hidden"><g><linearGradient x1="-0.0383" y1="-1.3345" x2="127.325" y2="126.694" gradientUnits="userSpaceOnUse" id="SVGID_1_"><stop offset="0" stop-color="#00C8DE"/><stop offset="1" stop-color="#0063FF"/></linearGradient><linearGradient x1="-22.6234" y1="18.1436" x2="104.74" y2="146.172" gradientUnits="userSpaceOnUse" id="SVGID_10_"><stop offset="0" stop-color="#00C8DE"/><stop offset="1" stop-color="#0063FF"/></linearGradient><linearGradient x1="19.5954" y1="-23.8558" x2="146.959" y2="104.172" gradientUnits="userSpaceOnUse" id="SVGID_11_"><stop offset="0" stop-color="#00C8DE"/><stop offset="1" stop-color="#0063FF"/></linearGradient><linearGradient x1="-9.9773" y1="5.5633" x2="117.386" y2="133.592" gradientUnits="userSpaceOnUse" id="SVGID_12_"><stop offset="0" stop-color="#00C8DE"/><stop offset="1" stop-color="#0063FF"/></linearGradient><linearGradient x1="-24.0502" y1="19.5631" x2="103.313" y2="147.591" gradientUnits="userSpaceOnUse" id="SVGID_13_"><stop offset="0" stop-color="#00C8DE"/><stop offset="1" stop-color="#0063FF"/></linearGradient><linearGradient x1="21.0223" y1="-25.2753" x2="148.386" y2="102.753" gradientUnits="userSpaceOnUse" id="SVGID_14_"><stop offset="0" stop-color="#00C8DE"/><stop offset="1" stop-color="#0063FF"/></linearGradient><linearGradient x1="6.9493" y1="-11.2755" x2="134.313" y2="116.753" gradientUnits="userSpaceOnUse" id="SVGID_15_"><stop offset="0" stop-color="#00C8DE"/><stop offset="1" stop-color="#0063FF"/></linearGradient><linearGradient x1="-8.5504" y1="4.1438" x2="118.813" y2="132.172" gradientUnits="userSpaceOnUse" id="SVGID_16_"><stop offset="0" stop-color="#00C8DE"/><stop offset="1" stop-color="#0063FF"/></linearGradient><linearGradient x1="5.5225" y1="-9.856" x2="132.886" y2="118.172" gradientUnits="userSpaceOnUse" id="SVGID_17_"><stop offset="0" stop-color="#00C8DE"/><stop offset="1" stop-color="#0063FF"/></linearGradient><path d=" M 121.4 71 C 117.5 99.2 93.2 121 64 121 C 32 121 6 95 6 63 C 6 31 32 5 64 5 C 93.3 5 117.5 26.8 121.4 55 L 124.4 55 C 120.5 25.1 94.9 2 64 2 L 64 2 C 30.3 2 3 29.3 3 63 L 3 63 C 3 96.7 30.3 124 64 124 L 64 124 C 95 124 120.5 100.9 124.5 71 L 121.4 71 Z" fill="url(#SVGID_1_)"/><g><linearGradient x1="-8.5504" y1="4.1438" x2="118.813" y2="132.172" gradientUnits="userSpaceOnUse" id="SVGID_2_"><stop offset="0" stop-color="#00C8DE"/><stop offset="1" stop-color="#0063FF"/></linearGradient><path d=" M 50 96.157 L 17.913 63 L 50 29.843 L 82.087 63 L 50 96.157 Z M 22.087 63 L 50 91.843 L 77.913 63 L 50 34.157 L 22.087 63 Z" fill="url(#SVGID_2_)"/></g><g><linearGradient x1="6.0327" y1="-10.3636" x2="133.396" y2="117.665" gradientUnits="userSpaceOnUse" id="SVGID_3_"><stop offset="0" stop-color="#00C8DE"/><stop offset="1" stop-color="#0063FF"/></linearGradient><path d=" M 79.078 95.043 L 76.923 92.957 L 79.705 90.083 L 81.86 92.169 L 79.078 95.043 Z M 84.641 89.294 L 82.486 87.208 L 85.268 84.334 L 87.423 86.42 L 84.641 89.294 Z M 90.205 83.545 L 88.049 81.459 L 90.83 78.585 L 92.986 80.671 L 90.205 83.545 Z M 95.768 77.797 L 93.612 75.711 L 96.394 72.836 L 98.55 74.922 L 95.768 77.797 Z M 101.332 72.048 L 99.176 69.962 L 101.958 67.087 L 104.114 69.173 L 101.332 72.048 Z M 106.895 66.299 L 104.739 64.213 L 106.922 61.957 L 107.381 62.401 L 108.479 61.338 L 110.088 63 L 106.895 66.299 Z M 103.542 60.55 L 100.76 57.676 L 102.915 55.59 L 105.697 58.464 L 103.542 60.55 Z M 97.979 54.801 L 95.197 51.927 L 97.352 49.841 L 100.134 52.715 L 97.979 54.801 Z M 92.415 49.053 L 89.633 46.178 L 91.789 44.092 L 94.571 46.967 L 92.415 49.053 Z M 86.852 43.304 L 84.07 40.43 L 86.225 38.344 L 89.007 41.218 L 86.852 43.304 Z M 81.289 37.555 L 78.507 34.681 L 80.662 32.595 L 83.444 35.469 L 81.289 37.555 Z" fill="url(#SVGID_3_)"/></g><g><g><linearGradient x1="-9.9674" y1="5.5534" x2="117.396" y2="133.582" gradientUnits="userSpaceOnUse" id="SVGID_4_"><stop offset="0" stop-color="#00C8DE"/><stop offset="1" stop-color="#0063FF"/></linearGradient><path d=" M 76.922 95.043 L 75.531 93.605 L 77.688 91.52 L 79.078 92.957 Z" fill="url(#SVGID_4_)"/></g><g><linearGradient x1="-9.7664" y1="5.3534" x2="117.597" y2="133.382" gradientUnits="userSpaceOnUse" id="SVGID_5_"><stop offset="0" stop-color="#00C8DE"/><stop offset="1" stop-color="#0063FF"/></linearGradient><path d=" M 72.507 90.48 L 69.483 87.355 L 71.638 85.269 L 74.662 88.394 L 72.507 90.48 Z M 66.458 84.23 L 63.434 81.105 L 65.59 79.019 L 68.614 82.144 L 66.458 84.23 Z M 60.41 77.98 L 57.386 74.855 L 59.541 72.769 L 62.565 75.894 L 60.41 77.98 Z M 54.361 71.73 L 51.337 68.605 L 53.493 66.519 L 56.517 69.644 L 54.361 71.73 Z" fill="url(#SVGID_5_)"/></g><g><linearGradient x1="-9.5656" y1="5.1537" x2="117.798" y2="133.182" gradientUnits="userSpaceOnUse" id="SVGID_6_"><stop offset="0" stop-color="#00C8DE"/><stop offset="1" stop-color="#0063FF"/></linearGradient><path d=" M 48.312 65.48 L 46.922 64.043 L 49.078 61.957 L 50.469 63.395 Z" fill="url(#SVGID_6_)"/></g></g><g><g><linearGradient x1="20.3134" y1="-24.5701" x2="147.677" y2="103.458" gradientUnits="userSpaceOnUse" id="SVGID_7_"><stop offset="0" stop-color="#00C8DE"/><stop offset="1" stop-color="#0063FF"/></linearGradient><path d=" M 77.688 34.48 L 75.531 32.395 L 76.922 30.957 L 79.078 33.043 Z" fill="url(#SVGID_7_)"/></g><g><linearGradient x1="5.7332" y1="-10.0656" x2="133.096" y2="117.963" gradientUnits="userSpaceOnUse" id="SVGID_8_"><stop offset="0" stop-color="#00C8DE"/><stop offset="1" stop-color="#0063FF"/></linearGradient><path d=" M 53.493 59.48 L 51.337 57.394 L 54.361 54.269 L 56.517 56.355 L 53.493 59.48 Z M 59.541 53.23 L 57.386 51.144 L 60.41 48.019 L 62.565 50.105 L 59.541 53.23 Z M 65.59 46.98 L 63.434 44.894 L 66.458 41.769 L 68.614 43.855 L 65.59 46.98 Z M 71.638 40.73 L 69.483 38.644 L 72.507 35.519 L 74.662 37.605 L 71.638 40.73 Z" fill="url(#SVGID_8_)"/></g><g><linearGradient x1="-8.8468" y1="4.4386" x2="118.516" y2="132.467" gradientUnits="userSpaceOnUse" id="SVGID_9_"><stop offset="0" stop-color="#00C8DE"/><stop offset="1" stop-color="#0063FF"/></linearGradient><path d=" M 49.078 64.043 L 46.922 61.957 L 48.312 60.52 L 50.469 62.605 Z" fill="url(#SVGID_9_)"/></g></g><path d=" M 17 60 L 17 66 L 22 69 L 27 66 L 27 60 L 22 57 Z" fill="url(#SVGID_10_)"/><path d=" M 101 60 L 101 66 L 106 69 L 111 66 L 111 60 L 106 57 Z" fill="url(#SVGID_11_)"/><path d=" M 73 91 L 73 97 L 78 100 L 83 97 L 83 91 L 78 88 Z" fill="url(#SVGID_12_)"/><path d=" M 45 91 L 45 97 L 50 100 L 55 97 L 55 91 L 50 88 Z" fill="url(#SVGID_13_)"/><path d=" M 73 29 L 73 35 L 78 38 L 83 35 L 83 29 L 78 26 Z" fill="url(#SVGID_14_)"/><path d=" M 45 29 L 45 35 L 50 38 L 55 35 L 55 29 L 50 26 Z" fill="url(#SVGID_15_)"/><path d=" M 45 60 L 45 66 L 50 69 L 55 66 L 55 60 L 50 57 Z" fill="url(#SVGID_16_)"/><path d=" M 83 66 L 83 60 L 78 57 L 73 60 L 73 66 L 78 69 Z" fill="url(#SVGID_17_)"/><g><linearGradient x1="13.9858" y1="-18.2754" x2="141.349" y2="109.753" gradientUnits="userSpaceOnUse" id="SVGID_18_"><stop offset="0" stop-color="#00C8DE"/><stop offset="1" stop-color="#0063FF"/></linearGradient><rect x="50" y="30.5" width="28" height="3" fill="url(#SVGID_18_)"/></g><g><linearGradient x1="-17.0138" y1="12.5632" x2="110.349" y2="140.591" gradientUnits="userSpaceOnUse" id="SVGID_19_"><stop offset="0" stop-color="#00C8DE"/><stop offset="1" stop-color="#0063FF"/></linearGradient><rect x="50" y="92.5" width="28" height="3" fill="url(#SVGID_19_)"/></g><g><linearGradient x1="13.5641" y1="-17.8559" x2="140.927" y2="110.172" gradientUnits="userSpaceOnUse" id="SVGID_20_"><stop offset="0" stop-color="#00C8DE"/><stop offset="1" stop-color="#0063FF"/></linearGradient><rect x="80" y="61.5" width="28" height="3" fill="url(#SVGID_20_)"/></g><g><g><linearGradient x1="-11.5661" y1="7.1438" x2="115.797" y2="135.172" gradientUnits="userSpaceOnUse" id="SVGID_21_"><stop offset="0" stop-color="#00C8DE"/><stop offset="1" stop-color="#0063FF"/></linearGradient><rect x="43" y="61.5" width="2" height="3" fill="url(#SVGID_21_)"/></g><g><linearGradient x1="-15.5843" y1="11.1461" x2="111.779" y2="139.174" gradientUnits="userSpaceOnUse" id="SVGID_22_"><stop offset="0" stop-color="#00C8DE"/><stop offset="1" stop-color="#0063FF"/></linearGradient><rect x="33.667" y="61.5" width="4.667" height="3" fill="url(#SVGID_22_)"/></g><g><linearGradient x1="-19.6077" y1="15.1437" x2="107.755" y2="143.172" gradientUnits="userSpaceOnUse" id="SVGID_23_"><stop offset="0" stop-color="#00C8DE"/><stop offset="1" stop-color="#0063FF"/></linearGradient><rect x="27" y="61.5" width="2" height="3" fill="url(#SVGID_23_)"/></g></g><g><linearGradient x1="-1.514" y1="-2.8561" x2="125.849" y2="125.172" gradientUnits="userSpaceOnUse" id="SVGID_24_"><stop offset="0" stop-color="#00C8DE"/><stop offset="1" stop-color="#0063FF"/></linearGradient><rect x="55" y="61.5" width="18" height="3" fill="url(#SVGID_24_)"/></g></g></svg>